<?xml version="1.0" encoding="UTF-8"?>
<svg xmlns="http://www.w3.org/2000/svg" xmlns:xlink="http://www.w3.org/1999/xlink" width="48" height="48" viewBox="0 0 48 48" version="1.1">
<g id="surface1">
<path style="fill-rule:nonzero;fill:rgb(98.039216%,98.039216%,98.039216%);fill-opacity:1;stroke-width:2;stroke-linecap:butt;stroke-linejoin:miter;stroke:rgb(44.313725%,44.313725%,47.843137%);stroke-opacity:1;stroke-miterlimit:4;" d="M 199.007161 100 C 199.007161 154.671224 154.671224 199.007161 100 199.007161 C 45.328776 199.007161 0.992839 154.671224 0.992839 100 C 0.992839 45.328776 45.328776 0.992839 100 0.992839 C 154.671224 0.992839 199.007161 45.328776 199.007161 100 Z M 199.007161 100 " transform="matrix(0.24,0,0,0.24,0,0)"/>
<path style=" stroke:none;fill-rule:nonzero;fill:rgb(9.411765%,9.411765%,10.588235%);fill-opacity:1;" d="M 31.570312 19.328125 L 35.625 13.875 C 29.1875 8.765625 19.351562 9.085938 13.691406 15.464844 C 11.816406 17.578125 10.609375 20.332031 10.46875 23.679688 C 10.277344 28.332031 12.355469 32.632812 15.625 34.953125 C 21.789062 39.328125 30.085938 38.273438 36 34.125 L 32.375 28.347656 C 28.027344 31.730469 20.042969 31.410156 19.488281 24.644531 C 18.9375 17.878906 26.417969 15.945312 31.570312 19.328125 Z M 31.570312 19.328125 "/>
</g>
</svg>
